<mxfile host="Electron" modified="2024-01-26T19:22:53.545Z" agent="Mozilla/5.0 (Macintosh; Intel Mac OS X 10_15_7) AppleWebKit/537.36 (KHTML, like Gecko) draw.io/22.1.21 Chrome/120.0.6099.109 Electron/28.1.0 Safari/537.36" etag="Z5-QDyeb9Nz4VhThj8k2" version="22.1.21" type="device" pages="2">
  <diagram id="JGq5mMFjrIXwyw8050Zy" name="overview">
    <mxGraphModel dx="1323" dy="1709" grid="1" gridSize="10" guides="1" tooltips="1" connect="1" arrows="1" fold="1" page="1" pageScale="1" pageWidth="827" pageHeight="1169" math="0" shadow="0">
      <root>
        <mxCell id="0" />
        <mxCell id="1" parent="0" />
        <mxCell id="GkBf_ReJm_KXZPCguamX-5" value="" style="edgeStyle=orthogonalEdgeStyle;rounded=1;orthogonalLoop=1;jettySize=auto;html=1;curved=1;strokeWidth=1;endArrow=block;endFill=1;fontFamily=Space Grotesk;" parent="1" source="GkBf_ReJm_KXZPCguamX-1" target="GkBf_ReJm_KXZPCguamX-4" edge="1">
          <mxGeometry relative="1" as="geometry" />
        </mxCell>
        <mxCell id="GkBf_ReJm_KXZPCguamX-1" value="&lt;font data-font-src=&quot;https://fonts.googleapis.com/css?family=Space+Grotesk&quot;&gt;Model A&lt;/font&gt;" style="rounded=1;whiteSpace=wrap;html=1;fontFamily=Space Grotesk;" parent="1" vertex="1">
          <mxGeometry x="124" y="-115" width="90" height="40" as="geometry" />
        </mxCell>
        <mxCell id="GkBf_ReJm_KXZPCguamX-7" style="edgeStyle=orthogonalEdgeStyle;rounded=1;orthogonalLoop=1;jettySize=auto;html=1;entryX=0.5;entryY=1;entryDx=0;entryDy=0;curved=1;strokeWidth=1;endArrow=block;endFill=1;fontFamily=Space Grotesk;" parent="1" source="GkBf_ReJm_KXZPCguamX-2" target="GkBf_ReJm_KXZPCguamX-4" edge="1">
          <mxGeometry relative="1" as="geometry" />
        </mxCell>
        <mxCell id="GkBf_ReJm_KXZPCguamX-9" style="edgeStyle=orthogonalEdgeStyle;rounded=1;orthogonalLoop=1;jettySize=auto;html=1;entryX=0.5;entryY=0;entryDx=0;entryDy=0;endArrow=classic;endFill=1;curved=1;fontFamily=Space Grotesk;" parent="1" source="GkBf_ReJm_KXZPCguamX-2" target="GkBf_ReJm_KXZPCguamX-8" edge="1">
          <mxGeometry relative="1" as="geometry" />
        </mxCell>
        <mxCell id="GkBf_ReJm_KXZPCguamX-2" value="&lt;font data-font-src=&quot;https://fonts.googleapis.com/css?family=Space+Grotesk&quot;&gt;Model B&lt;/font&gt;" style="rounded=1;whiteSpace=wrap;html=1;fontFamily=Space Grotesk;" parent="1" vertex="1">
          <mxGeometry x="124" y="-45" width="90" height="40" as="geometry" />
        </mxCell>
        <mxCell id="GkBf_ReJm_KXZPCguamX-11" style="edgeStyle=orthogonalEdgeStyle;rounded=1;orthogonalLoop=1;jettySize=auto;html=1;entryX=1;entryY=0.5;entryDx=0;entryDy=0;endArrow=classic;endFill=1;curved=1;fontFamily=Space Grotesk;" parent="1" source="GkBf_ReJm_KXZPCguamX-3" target="GkBf_ReJm_KXZPCguamX-10" edge="1">
          <mxGeometry relative="1" as="geometry" />
        </mxCell>
        <mxCell id="GkBf_ReJm_KXZPCguamX-3" value="&lt;font data-font-src=&quot;https://fonts.googleapis.com/css?family=Space+Grotesk&quot;&gt;Model C&lt;/font&gt;" style="rounded=1;whiteSpace=wrap;html=1;fontFamily=Space Grotesk;fillColor=#fff2cc;strokeColor=#d6b656;" parent="1" vertex="1">
          <mxGeometry x="124" y="25" width="90" height="40" as="geometry" />
        </mxCell>
        <mxCell id="GkBf_ReJm_KXZPCguamX-4" value="&lt;font&gt;Protocol ⍺&lt;/font&gt;" style="shape=hexagon;perimeter=hexagonPerimeter2;whiteSpace=wrap;html=1;fixedSize=1;rounded=1;size=10;fontFamily=Space Grotesk;" parent="1" vertex="1">
          <mxGeometry x="-10" y="-120" width="79" height="50" as="geometry" />
        </mxCell>
        <mxCell id="GkBf_ReJm_KXZPCguamX-8" value="Protocol β" style="shape=hexagon;perimeter=hexagonPerimeter2;whiteSpace=wrap;html=1;fixedSize=1;rounded=1;size=10;fontFamily=Space Grotesk;" parent="1" vertex="1">
          <mxGeometry x="-10" y="20" width="79" height="50" as="geometry" />
        </mxCell>
        <mxCell id="GkBf_ReJm_KXZPCguamX-10" value="Protocol 𝛄" style="shape=hexagon;perimeter=hexagonPerimeter2;whiteSpace=wrap;html=1;fixedSize=1;rounded=1;size=10;fontFamily=Space Grotesk;" parent="1" vertex="1">
          <mxGeometry x="-10" y="105" width="79" height="50" as="geometry" />
        </mxCell>
        <mxCell id="OIm4lDw_Z_PK5PcclofG-1" value="&lt;font data-font-src=&quot;https://fonts.googleapis.com/css?family=Space+Grotesk&quot;&gt;Model C&lt;/font&gt;" style="rounded=1;whiteSpace=wrap;html=1;fontFamily=Space Grotesk;fillColor=#fff2cc;strokeColor=#d6b656;" vertex="1" parent="1">
          <mxGeometry x="130" y="105" width="90" height="40" as="geometry" />
        </mxCell>
      </root>
    </mxGraphModel>
  </diagram>
  <diagram name="Copy of overview" id="SnBL0Dpb8uZPrskFr5Ma">
    <mxGraphModel dx="1944" dy="2383" grid="1" gridSize="10" guides="1" tooltips="1" connect="1" arrows="1" fold="1" page="1" pageScale="1" pageWidth="827" pageHeight="1169" math="0" shadow="0">
      <root>
        <mxCell id="kURvr1ytB9uSN7DURNPj-0" />
        <mxCell id="kURvr1ytB9uSN7DURNPj-1" parent="kURvr1ytB9uSN7DURNPj-0" />
        <mxCell id="kURvr1ytB9uSN7DURNPj-2" value="" style="edgeStyle=orthogonalEdgeStyle;rounded=1;orthogonalLoop=1;jettySize=auto;html=1;curved=1;strokeWidth=1;endArrow=block;endFill=1;fontFamily=Space Grotesk;" edge="1" parent="kURvr1ytB9uSN7DURNPj-1" source="kURvr1ytB9uSN7DURNPj-3" target="kURvr1ytB9uSN7DURNPj-9">
          <mxGeometry relative="1" as="geometry" />
        </mxCell>
        <mxCell id="kURvr1ytB9uSN7DURNPj-3" value="&lt;font data-font-src=&quot;https://fonts.googleapis.com/css?family=Space+Grotesk&quot;&gt;Model A&lt;/font&gt;" style="rounded=1;whiteSpace=wrap;html=1;fontFamily=Space Grotesk;" vertex="1" parent="kURvr1ytB9uSN7DURNPj-1">
          <mxGeometry x="124" y="-115" width="90" height="40" as="geometry" />
        </mxCell>
        <mxCell id="kURvr1ytB9uSN7DURNPj-4" style="edgeStyle=orthogonalEdgeStyle;rounded=1;orthogonalLoop=1;jettySize=auto;html=1;entryX=0.5;entryY=1;entryDx=0;entryDy=0;curved=1;strokeWidth=1;endArrow=block;endFill=1;fontFamily=Space Grotesk;" edge="1" parent="kURvr1ytB9uSN7DURNPj-1" source="kURvr1ytB9uSN7DURNPj-6" target="kURvr1ytB9uSN7DURNPj-9">
          <mxGeometry relative="1" as="geometry" />
        </mxCell>
        <mxCell id="kURvr1ytB9uSN7DURNPj-5" style="edgeStyle=orthogonalEdgeStyle;rounded=1;orthogonalLoop=1;jettySize=auto;html=1;entryX=0.5;entryY=0;entryDx=0;entryDy=0;endArrow=classic;endFill=1;curved=1;fontFamily=Space Grotesk;" edge="1" parent="kURvr1ytB9uSN7DURNPj-1" source="kURvr1ytB9uSN7DURNPj-6" target="kURvr1ytB9uSN7DURNPj-10">
          <mxGeometry relative="1" as="geometry" />
        </mxCell>
        <mxCell id="kURvr1ytB9uSN7DURNPj-6" value="&lt;font data-font-src=&quot;https://fonts.googleapis.com/css?family=Space+Grotesk&quot;&gt;Model B&lt;/font&gt;" style="rounded=1;whiteSpace=wrap;html=1;fontFamily=Space Grotesk;" vertex="1" parent="kURvr1ytB9uSN7DURNPj-1">
          <mxGeometry x="124" y="-45" width="90" height="40" as="geometry" />
        </mxCell>
        <mxCell id="kURvr1ytB9uSN7DURNPj-7" style="edgeStyle=orthogonalEdgeStyle;rounded=1;orthogonalLoop=1;jettySize=auto;html=1;entryX=1;entryY=0.5;entryDx=0;entryDy=0;endArrow=classic;endFill=1;curved=1;fontFamily=Space Grotesk;" edge="1" parent="kURvr1ytB9uSN7DURNPj-1" source="kURvr1ytB9uSN7DURNPj-8" target="kURvr1ytB9uSN7DURNPj-11">
          <mxGeometry relative="1" as="geometry" />
        </mxCell>
        <mxCell id="kURvr1ytB9uSN7DURNPj-8" value="&lt;font data-font-src=&quot;https://fonts.googleapis.com/css?family=Space+Grotesk&quot;&gt;Model C&lt;/font&gt;" style="rounded=1;whiteSpace=wrap;html=1;fontFamily=Space Grotesk;" vertex="1" parent="kURvr1ytB9uSN7DURNPj-1">
          <mxGeometry x="124" y="25" width="90" height="40" as="geometry" />
        </mxCell>
        <mxCell id="kURvr1ytB9uSN7DURNPj-9" value="&lt;font&gt;Protocol ⍺&lt;/font&gt;" style="shape=hexagon;perimeter=hexagonPerimeter2;whiteSpace=wrap;html=1;fixedSize=1;rounded=1;size=10;fontFamily=Space Grotesk;" vertex="1" parent="kURvr1ytB9uSN7DURNPj-1">
          <mxGeometry x="-10" y="-120" width="79" height="50" as="geometry" />
        </mxCell>
        <mxCell id="kURvr1ytB9uSN7DURNPj-10" value="Protocol β" style="shape=hexagon;perimeter=hexagonPerimeter2;whiteSpace=wrap;html=1;fixedSize=1;rounded=1;size=10;fontFamily=Space Grotesk;" vertex="1" parent="kURvr1ytB9uSN7DURNPj-1">
          <mxGeometry x="-10" y="20" width="79" height="50" as="geometry" />
        </mxCell>
        <mxCell id="kURvr1ytB9uSN7DURNPj-11" value="Protocol 𝛄" style="shape=hexagon;perimeter=hexagonPerimeter2;whiteSpace=wrap;html=1;fixedSize=1;rounded=1;size=10;fontFamily=Space Grotesk;" vertex="1" parent="kURvr1ytB9uSN7DURNPj-1">
          <mxGeometry x="-10" y="105" width="79" height="50" as="geometry" />
        </mxCell>
      </root>
    </mxGraphModel>
  </diagram>
</mxfile>
